<svg width="94" height="105" viewBox="0 0 94 105" fill="none" xmlns="http://www.w3.org/2000/svg">
<path d="M9.13246 94.1537L0.709961 0.4375H93.29L84.8562 94.1388L46.9437 104.562L9.13246 94.1537Z" fill="#1572B6"/>
<path d="M47 96.5969L77.6375 88.1739L84.845 8.10181H47V96.5969Z" fill="#33A9DC"/>
<path d="M47 42.054H62.3375L63.395 30.2842H47V18.7896H76.0625L75.785 21.8724L72.9387 53.5487H47V42.054Z" fill="white"/>
<path d="M47.0711 71.9045L47.0186 71.9193L34.1112 68.4609L33.2862 59.2942H21.6499L23.2737 77.3413L47.0149 83.8788L47.0711 83.864V71.9045Z" fill="#EBEBEB"/>
<path d="M61.3513 53.0615L59.9563 68.4534L47.03 71.9119V83.8714L70.79 77.3412L70.9663 75.4001L72.98 53.0615H61.3513Z" fill="white"/>
<path d="M47.0411 18.7896V30.2842H19.0436L18.8111 27.6997L18.2824 21.8724L18.0049 18.7896H47.0411ZM46.9999 42.054V53.5487H34.2536L34.0211 50.9642L33.4961 45.1369L33.2186 42.054H46.9999Z" fill="#EBEBEB"/>
</svg>
