<svg width="498" height="388" viewBox="0 0 498 388" fill="none" xmlns="http://www.w3.org/2000/svg">
<g clip-path="url(#clip0_11_318)">
<path d="M414.121 167.33C414.121 167.33 402.412 173.835 405.783 181.241C409.153 188.648 457.01 182.588 457.01 182.588C457.01 182.588 453.64 172.489 447.574 170.469C441.507 168.449 414.121 167.33 414.121 167.33Z" fill="#6C63FF"/>
<path d="M409.556 169.065C411.91 167.537 414.525 166.456 417.272 165.878C426.432 163.66 436.023 163.959 445.027 166.742L444.862 166.608C448.698 168.631 452.066 171.436 454.748 174.842L409.556 169.065Z" fill="#CCCCCC"/>
<path d="M461.405 200.915C461.243 203.332 461.081 205.747 460.92 208.16C460.698 213.213 460.146 218.247 459.268 223.228C458.446 227.396 457.138 231.53 454.799 235.078C452.46 238.62 448.989 241.548 444.877 242.626C442.353 243.23 439.728 243.287 437.18 242.794C432.374 240.067 429.118 243.555 433.917 247.103C435.006 247.907 436.138 248.651 437.308 249.332L439.485 282.909L399.042 274.156L406.935 229.49C405.726 228.393 404.621 227.187 403.632 225.888C399.109 219.889 397.552 212.072 397.849 204.571C398.152 197.064 400.154 189.745 402.143 182.507C402.65 180.543 403.262 178.608 403.976 176.71C404.859 177.074 405.756 177.404 406.666 177.68C412.483 179.444 418.664 179.585 424.744 179.578C435.562 179.572 446.367 179.15 457.158 178.313C459.638 182.391 461.144 186.985 461.56 191.738C461.734 194.797 461.682 197.864 461.405 200.915Z" fill="#CCCCCC"/>
<path d="M288.432 292.062L350.694 297.583L351.361 297.644V32.2711C351.139 32.1162 350.916 31.9614 350.694 31.8065C337.718 22.7404 323.681 15.2924 308.896 9.62817L305.714 53.4597L305.425 57.4726L302.277 100.941L301.306 114.312L288.546 290.514L288.432 292.062Z" fill="#E6E6E6"/>
<path d="M134.459 27.3291C134.014 27.6119 133.569 27.8946 133.125 28.1909V297.644L134.459 297.523L196.047 292.062L195.932 290.514L183.173 114.312L182.202 100.94L179.054 57.4725L178.764 53.4597L175.428 7.49377C161.039 12.4757 147.288 19.1334 134.459 27.3291Z" fill="#E6E6E6"/>
<path d="M133.124 28.1909C132.228 28.77 131.331 29.3625 130.448 29.9617V301.32C130.448 308.1 134.473 313.783 139.851 315.23C140.73 315.468 141.637 315.588 142.548 315.587H342.605C343.513 315.588 344.418 315.468 345.295 315.23C347.294 314.676 349.106 313.592 350.539 312.093C353.271 309.176 354.764 305.314 354.704 301.32V34.6815C353.599 33.8668 352.487 33.0588 351.361 32.2711C351.139 32.1162 350.916 31.9614 350.694 31.8065V301.32C350.695 302.193 350.591 303.064 350.384 303.912C349.433 307.918 346.299 310.854 342.605 310.854H142.548C138.085 310.854 134.459 306.578 134.459 301.32V27.3291C134.014 27.6119 133.569 27.8947 133.124 28.1909Z" fill="#E6E6E6"/>
<path d="M352.699 53.4624H132.452V57.4746H352.699V53.4624Z" fill="#E6E6E6"/>
<path d="M285.244 2.28242C283.909 1.95251 282.574 1.64279 281.226 1.35327V110.299H285.244V2.28242Z" fill="#E6E6E6"/>
<path d="M203.927 0C202.585 0.249119 201.244 0.504964 199.909 0.781015V110.299H203.927V0Z" fill="#E6E6E6"/>
<path d="M89.271 308.565C89.27 310.867 89.7117 313.148 90.5719 315.284C90.9023 316.112 91.2967 316.914 91.7515 317.681C92.3389 318.682 93.0206 319.624 93.7871 320.495C95.4805 322.423 97.5662 323.967 99.905 325.025C102.244 326.083 104.782 326.63 107.349 326.629H371.111C375.905 326.629 380.503 324.727 383.894 321.34C387.284 317.954 389.189 313.361 389.189 308.571C389.189 303.782 387.284 299.189 383.894 295.803C380.503 292.416 375.905 290.514 371.111 290.514H107.349C102.557 290.518 97.9626 292.421 94.5735 295.805C91.1844 299.189 89.2775 303.778 89.271 308.565Z" fill="#E6E6E6"/>
<path d="M132.452 114.314L351.36 114.314V100.94L132.452 100.94V114.314Z" fill="#E6E6E6"/>
<path d="M251.278 104.283H232.534C232.534 103.317 232.724 102.361 233.094 101.468C233.465 100.576 234.007 99.765 234.691 99.082C235.375 98.399 236.186 97.8571 237.08 97.4875C237.973 97.1178 238.931 96.9276 239.898 96.9276H243.914C245.867 96.9276 247.74 97.7025 249.121 99.082C250.502 100.461 251.278 102.332 251.278 104.283H251.278Z" fill="#E6E6E6"/>
<path d="M0 318.879C5.85563 325.81 12.1891 332.323 18.9542 338.371H479.046C485.811 332.323 492.144 325.81 498 318.879H0Z" fill="#3F3D56"/>
<path d="M124.807 253.698V322.751H173.237V253.698C173.238 253.201 173.079 252.717 172.784 252.317C172.49 251.917 172.074 251.623 171.599 251.476C171.375 251.402 171.141 251.366 170.905 251.368H127.146C126.839 251.368 126.535 251.427 126.251 251.544C125.968 251.661 125.71 251.832 125.493 252.049C125.276 252.265 125.103 252.522 124.985 252.805C124.868 253.088 124.807 253.391 124.807 253.698ZM143.707 277.425C143.72 276.063 144.27 274.762 145.238 273.804C146.206 272.846 147.514 272.308 148.877 272.308C150.24 272.308 151.548 272.846 152.516 273.804C153.484 274.762 154.034 276.063 154.047 277.425V285.437C154.04 286.802 153.492 288.109 152.523 289.072C151.555 290.034 150.243 290.575 148.877 290.575C147.51 290.575 146.199 290.034 145.23 289.072C144.262 288.109 143.714 286.802 143.707 285.437V277.425Z" fill="#2F2E41"/>
<path d="M124.658 320.543V327.201C124.66 327.546 124.797 327.877 125.04 328.121C125.284 328.366 125.614 328.505 125.959 328.508H172.084C172.43 328.506 172.761 328.368 173.005 328.123C173.249 327.878 173.385 327.547 173.385 327.201V320.543H124.658Z" fill="#3F3D56"/>
<path d="M48.6191 149.66V275.741C48.6204 277.348 49.26 278.889 50.3974 280.025C51.5348 281.161 53.077 281.8 54.6856 281.801H241.734C243.342 281.8 244.885 281.161 246.022 280.025C247.16 278.889 247.799 277.348 247.8 275.741V149.66C247.796 148.055 247.156 146.516 246.019 145.382C244.882 144.247 243.341 143.609 241.734 143.607H54.6856C53.0784 143.609 51.5376 144.247 50.4006 145.382C49.2636 146.516 48.623 148.055 48.6191 149.66Z" fill="#3F3D56"/>
<path d="M53.0071 151.229V274.186C53.0086 275.045 53.3506 275.868 53.9583 276.475C54.566 277.082 55.3898 277.423 56.2492 277.425H240.177C241.036 277.423 241.86 277.082 242.468 276.475C243.075 275.868 243.417 275.045 243.419 274.186V151.229C243.419 150.369 243.077 149.545 242.47 148.937C241.862 148.328 241.037 147.986 240.177 147.984H56.2492C55.3888 147.986 54.5642 148.328 53.9564 148.937C53.3486 149.545 53.0072 150.369 53.0071 151.229Z" fill="#6C63FF"/>
<path d="M90.5111 330.076C90.6983 330.311 90.9362 330.5 91.2071 330.629C91.4779 330.759 91.7746 330.825 92.0749 330.824H201.5C201.799 330.823 202.094 330.756 202.365 330.628C202.635 330.499 202.873 330.312 203.061 330.079C203.25 329.847 203.384 329.576 203.454 329.286C203.525 328.995 203.529 328.692 203.468 328.4L201.769 320.341C201.699 320.012 201.547 319.706 201.328 319.451C201.11 319.196 200.83 318.999 200.516 318.88C200.288 318.79 200.046 318.745 199.801 318.745H93.7667C93.5222 318.745 93.2799 318.79 93.0523 318.88C92.7379 318.999 92.4584 319.196 92.2395 319.451C92.0205 319.706 91.8689 320.012 91.7985 320.341L90.0999 328.4C90.0395 328.692 90.045 328.995 90.1161 329.285C90.1873 329.575 90.3222 329.845 90.5111 330.076Z" fill="#2F2E41"/>
<path d="M195.983 322.216H198.695C198.877 322.216 199.024 322.069 199.024 321.888V320.525C199.024 320.343 198.877 320.196 198.695 320.196H195.983C195.801 320.196 195.654 320.343 195.654 320.525V321.888C195.654 322.069 195.801 322.216 195.983 322.216Z" fill="#3F3D56"/>
<path d="M189.242 322.216H191.955C192.136 322.216 192.284 322.069 192.284 321.888V320.525C192.284 320.343 192.136 320.196 191.955 320.196H189.242C189.061 320.196 188.913 320.343 188.913 320.525V321.888C188.913 322.069 189.061 322.216 189.242 322.216Z" fill="#3F3D56"/>
<path d="M182.502 322.216H185.214C185.396 322.216 185.543 322.069 185.543 321.888V320.525C185.543 320.343 185.396 320.196 185.214 320.196H182.502C182.32 320.196 182.173 320.343 182.173 320.525V321.888C182.173 322.069 182.32 322.216 182.502 322.216Z" fill="#3F3D56"/>
<path d="M175.762 322.216H178.474C178.655 322.216 178.803 322.069 178.803 321.888V320.525C178.803 320.343 178.655 320.196 178.474 320.196H175.762C175.58 320.196 175.432 320.343 175.432 320.525V321.888C175.432 322.069 175.58 322.216 175.762 322.216Z" fill="#3F3D56"/>
<path d="M169.021 322.216H171.733C171.915 322.216 172.062 322.069 172.062 321.888V320.525C172.062 320.343 171.915 320.196 171.733 320.196H169.021C168.839 320.196 168.692 320.343 168.692 320.525V321.888C168.692 322.069 168.839 322.216 169.021 322.216Z" fill="#3F3D56"/>
<path d="M162.281 322.216H164.993C165.174 322.216 165.322 322.069 165.322 321.888V320.525C165.322 320.343 165.174 320.196 164.993 320.196H162.281C162.099 320.196 161.952 320.343 161.952 320.525V321.888C161.952 322.069 162.099 322.216 162.281 322.216Z" fill="#3F3D56"/>
<path d="M155.54 322.216H158.252C158.434 322.216 158.581 322.069 158.581 321.888V320.525C158.581 320.343 158.434 320.196 158.252 320.196H155.54C155.358 320.196 155.211 320.343 155.211 320.525V321.888C155.211 322.069 155.358 322.216 155.54 322.216Z" fill="#3F3D56"/>
<path d="M148.8 322.216H151.512C151.693 322.216 151.841 322.069 151.841 321.888V320.525C151.841 320.343 151.693 320.196 151.512 320.196H148.8C148.618 320.196 148.471 320.343 148.471 320.525V321.888C148.471 322.069 148.618 322.216 148.8 322.216Z" fill="#3F3D56"/>
<path d="M142.059 322.216H144.771C144.953 322.216 145.1 322.069 145.1 321.888V320.525C145.1 320.343 144.953 320.196 144.771 320.196H142.059C141.877 320.196 141.73 320.343 141.73 320.525V321.888C141.73 322.069 141.877 322.216 142.059 322.216Z" fill="#3F3D56"/>
<path d="M135.319 322.216H138.031C138.213 322.216 138.36 322.069 138.36 321.888V320.525C138.36 320.343 138.213 320.196 138.031 320.196H135.319C135.137 320.196 134.99 320.343 134.99 320.525V321.888C134.99 322.069 135.137 322.216 135.319 322.216Z" fill="#3F3D56"/>
<path d="M128.578 322.216H131.29C131.472 322.216 131.619 322.069 131.619 321.888V320.525C131.619 320.343 131.472 320.196 131.29 320.196H128.578C128.396 320.196 128.249 320.343 128.249 320.525V321.888C128.249 322.069 128.396 322.216 128.578 322.216Z" fill="#3F3D56"/>
<path d="M121.838 322.216H124.55C124.732 322.216 124.879 322.069 124.879 321.888V320.525C124.879 320.343 124.732 320.196 124.55 320.196H121.838C121.656 320.196 121.509 320.343 121.509 320.525V321.888C121.509 322.069 121.656 322.216 121.838 322.216Z" fill="#3F3D56"/>
<path d="M115.097 322.216H117.809C117.991 322.216 118.138 322.069 118.138 321.888V320.525C118.138 320.343 117.991 320.196 117.809 320.196H115.097C114.916 320.196 114.768 320.343 114.768 320.525V321.888C114.768 322.069 114.916 322.216 115.097 322.216Z" fill="#3F3D56"/>
<path d="M108.357 322.216H111.069C111.251 322.216 111.398 322.069 111.398 321.888V320.525C111.398 320.343 111.251 320.196 111.069 320.196H108.357C108.175 320.196 108.028 320.343 108.028 320.525V321.888C108.028 322.069 108.175 322.216 108.357 322.216Z" fill="#3F3D56"/>
<path d="M101.616 322.216H104.328C104.51 322.216 104.657 322.069 104.657 321.888V320.525C104.657 320.343 104.51 320.196 104.328 320.196H101.616C101.435 320.196 101.287 320.343 101.287 320.525V321.888C101.287 322.069 101.435 322.216 101.616 322.216Z" fill="#3F3D56"/>
<path d="M94.8758 322.216H97.5879C97.7697 322.216 97.917 322.069 97.917 321.888V320.525C97.917 320.343 97.7697 320.196 97.5879 320.196H94.8758C94.6941 320.196 94.5468 320.343 94.5468 320.525V321.888C94.5468 322.069 94.6941 322.216 94.8758 322.216Z" fill="#3F3D56"/>
<path d="M196.063 325.583H198.775C198.956 325.583 199.104 325.436 199.104 325.254V323.891C199.104 323.71 198.956 323.563 198.775 323.563H196.063C195.881 323.563 195.734 323.71 195.734 323.891V325.254C195.734 325.436 195.881 325.583 196.063 325.583Z" fill="#3F3D56"/>
<path d="M189.322 325.583H192.034C192.216 325.583 192.363 325.436 192.363 325.254V323.891C192.363 323.71 192.216 323.563 192.034 323.563H189.322C189.14 323.563 188.993 323.71 188.993 323.891V325.254C188.993 325.436 189.14 325.583 189.322 325.583Z" fill="#3F3D56"/>
<path d="M182.582 325.583H185.294C185.475 325.583 185.623 325.436 185.623 325.254V323.891C185.623 323.71 185.475 323.563 185.294 323.563H182.582C182.4 323.563 182.253 323.71 182.253 323.891V325.254C182.253 325.436 182.4 325.583 182.582 325.583Z" fill="#3F3D56"/>
<path d="M175.841 325.583H178.553C178.735 325.583 178.882 325.436 178.882 325.254V323.891C178.882 323.71 178.735 323.563 178.553 323.563H175.841C175.659 323.563 175.512 323.71 175.512 323.891V325.254C175.512 325.436 175.659 325.583 175.841 325.583Z" fill="#3F3D56"/>
<path d="M169.101 325.583H171.813C171.995 325.583 172.142 325.436 172.142 325.254V323.891C172.142 323.71 171.995 323.563 171.813 323.563H169.101C168.919 323.563 168.772 323.71 168.772 323.891V325.254C168.772 325.436 168.919 325.583 169.101 325.583Z" fill="#3F3D56"/>
<path d="M162.36 325.583H165.072C165.254 325.583 165.401 325.436 165.401 325.254V323.891C165.401 323.71 165.254 323.563 165.072 323.563H162.36C162.178 323.563 162.031 323.71 162.031 323.891V325.254C162.031 325.436 162.178 325.583 162.36 325.583Z" fill="#3F3D56"/>
<path d="M155.62 325.583H158.332C158.514 325.583 158.661 325.436 158.661 325.254V323.891C158.661 323.71 158.514 323.563 158.332 323.563H155.62C155.438 323.563 155.291 323.71 155.291 323.891V325.254C155.291 325.436 155.438 325.583 155.62 325.583Z" fill="#3F3D56"/>
<path d="M148.879 325.583H151.591C151.773 325.583 151.92 325.436 151.92 325.254V323.891C151.92 323.71 151.773 323.563 151.591 323.563H148.879C148.697 323.563 148.55 323.71 148.55 323.891V325.254C148.55 325.436 148.697 325.583 148.879 325.583Z" fill="#3F3D56"/>
<path d="M142.139 325.583H144.851C145.033 325.583 145.18 325.436 145.18 325.254V323.891C145.18 323.71 145.033 323.563 144.851 323.563H142.139C141.957 323.563 141.81 323.71 141.81 323.891V325.254C141.81 325.436 141.957 325.583 142.139 325.583Z" fill="#3F3D56"/>
<path d="M135.398 325.583H138.11C138.292 325.583 138.439 325.436 138.439 325.254V323.891C138.439 323.71 138.292 323.563 138.11 323.563H135.398C135.217 323.563 135.069 323.71 135.069 323.891V325.254C135.069 325.436 135.217 325.583 135.398 325.583Z" fill="#3F3D56"/>
<path d="M128.658 325.583H131.37C131.552 325.583 131.699 325.436 131.699 325.254V323.891C131.699 323.71 131.552 323.563 131.37 323.563H128.658C128.476 323.563 128.329 323.71 128.329 323.891V325.254C128.329 325.436 128.476 325.583 128.658 325.583Z" fill="#3F3D56"/>
<path d="M121.917 325.583H124.629C124.811 325.583 124.958 325.436 124.958 325.254V323.891C124.958 323.71 124.811 323.563 124.629 323.563H121.917C121.736 323.563 121.588 323.71 121.588 323.891V325.254C121.588 325.436 121.736 325.583 121.917 325.583Z" fill="#3F3D56"/>
<path d="M115.177 325.583H117.889C118.071 325.583 118.218 325.436 118.218 325.254V323.891C118.218 323.71 118.071 323.563 117.889 323.563H115.177C114.995 323.563 114.848 323.71 114.848 323.891V325.254C114.848 325.436 114.995 325.583 115.177 325.583Z" fill="#3F3D56"/>
<path d="M108.436 325.583H111.148C111.33 325.583 111.478 325.436 111.478 325.254V323.891C111.478 323.71 111.33 323.563 111.148 323.563H108.436C108.255 323.563 108.107 323.71 108.107 323.891V325.254C108.107 325.436 108.255 325.583 108.436 325.583Z" fill="#3F3D56"/>
<path d="M101.696 325.583H104.408C104.59 325.583 104.737 325.436 104.737 325.254V323.891C104.737 323.71 104.59 323.563 104.408 323.563H101.696C101.514 323.563 101.367 323.71 101.367 323.891V325.254C101.367 325.436 101.514 325.583 101.696 325.583Z" fill="#3F3D56"/>
<path d="M94.9554 325.583H97.6675C97.8493 325.583 97.9966 325.436 97.9966 325.254V323.891C97.9966 323.71 97.8493 323.563 97.6675 323.563H94.9554C94.7737 323.563 94.6263 323.71 94.6263 323.891V325.254C94.6263 325.436 94.7737 325.583 94.9554 325.583Z" fill="#3F3D56"/>
<path d="M140.117 329.622H166.42C166.602 329.622 166.75 329.475 166.75 329.294V327.931C166.75 327.75 166.602 327.603 166.42 327.603H140.117C139.935 327.603 139.788 327.75 139.788 327.931V329.294C139.788 329.475 139.935 329.622 140.117 329.622Z" fill="#3F3D56"/>
<path d="M65.4918 164.922H237.592C237.771 164.918 237.941 164.844 238.066 164.716C238.191 164.588 238.261 164.417 238.261 164.238C238.261 164.059 238.191 163.887 238.066 163.76C237.941 163.632 237.771 163.558 237.592 163.554H65.4918C65.3129 163.558 65.1426 163.632 65.0175 163.76C64.8923 163.887 64.8223 164.059 64.8223 164.238C64.8223 164.417 64.8923 164.588 65.0175 164.716C65.1426 164.844 65.3129 164.918 65.4918 164.922Z" fill="#3F3D56"/>
<path d="M225.877 160.064C228.092 160.064 229.888 158.23 229.888 155.968C229.888 153.706 228.092 151.872 225.877 151.872C223.662 151.872 221.866 153.706 221.866 155.968C221.866 158.23 223.662 160.064 225.877 160.064Z" fill="#3F3D56"/>
<path d="M212.021 160.064C214.236 160.064 216.032 158.23 216.032 155.968C216.032 153.706 214.236 151.872 212.021 151.872C209.806 151.872 208.01 153.706 208.01 155.968C208.01 158.23 209.806 160.064 212.021 160.064Z" fill="#3F3D56"/>
<path d="M198.165 160.064C200.381 160.064 202.176 158.23 202.176 155.968C202.176 153.706 200.381 151.872 198.165 151.872C195.95 151.872 194.155 153.706 194.155 155.968C194.155 158.23 195.95 160.064 198.165 160.064Z" fill="#3F3D56"/>
<path d="M73.1004 153.633C73.0999 153.729 73.1185 153.825 73.1552 153.915C73.1919 154.005 73.2459 154.086 73.3141 154.155C73.3823 154.224 73.4635 154.278 73.5528 154.316C73.6422 154.353 73.7381 154.373 73.8351 154.373H83.6762C83.8707 154.369 84.0557 154.288 84.1917 154.149C84.3277 154.01 84.4038 153.824 84.4038 153.629C84.4038 153.435 84.3277 153.248 84.1917 153.109C84.0557 152.97 83.8707 152.89 83.6762 152.885H73.8351C73.6386 152.888 73.4511 152.968 73.3134 153.108C73.1758 153.248 73.0992 153.436 73.1004 153.633Z" fill="#3F3D56"/>
<path d="M73.1004 156.427C73.0999 156.524 73.1185 156.62 73.1552 156.709C73.1919 156.799 73.2459 156.88 73.3141 156.949C73.3823 157.018 73.4635 157.073 73.5528 157.11C73.6422 157.147 73.7381 157.167 73.8351 157.167H83.6762C83.8709 157.163 84.0561 157.083 84.1923 156.944C84.3284 156.805 84.4047 156.618 84.4047 156.423C84.4047 156.229 84.3284 156.042 84.1923 155.903C84.0561 155.764 83.8709 155.684 83.6762 155.679H73.8351C73.6386 155.682 73.4511 155.762 73.3134 155.902C73.1758 156.042 73.0992 156.231 73.1004 156.427Z" fill="#3F3D56"/>
<path d="M73.1004 159.214C73.0992 159.41 73.1758 159.599 73.3134 159.739C73.4511 159.879 73.6386 159.959 73.8351 159.962H83.6762C83.8707 159.957 84.0557 159.877 84.1917 159.738C84.3277 159.599 84.4038 159.412 84.4038 159.218C84.4038 159.023 84.3277 158.837 84.1917 158.698C84.0557 158.558 83.8707 158.478 83.6762 158.474H73.8351C73.7381 158.474 73.6422 158.493 73.5528 158.531C73.4635 158.568 73.3823 158.623 73.3141 158.692C73.2459 158.761 73.1919 158.842 73.1552 158.932C73.1185 159.021 73.0999 159.117 73.1004 159.214Z" fill="#3F3D56"/>
<path d="M76.142 180.809H72.6058C71.5337 180.809 70.6646 181.677 70.6646 182.748C70.6646 183.819 71.5337 184.687 72.6058 184.687H76.142C77.2141 184.687 78.0832 183.819 78.0832 182.748C78.0832 181.677 77.2141 180.809 76.142 180.809Z" fill="#E6E6E6"/>
<path d="M116.585 180.809H113.049C111.977 180.809 111.107 181.677 111.107 182.748C111.107 183.819 111.977 184.687 113.049 184.687H116.585C117.657 184.687 118.526 183.819 118.526 182.748C118.526 181.677 117.657 180.809 116.585 180.809Z" fill="#E6E6E6"/>
<path d="M128.044 180.809H124.507C123.435 180.809 122.566 181.677 122.566 182.748C122.566 183.819 123.435 184.687 124.507 184.687H128.044C129.116 184.687 129.985 183.819 129.985 182.748C129.985 181.677 129.116 180.809 128.044 180.809Z" fill="#E6E6E6"/>
<path d="M105.584 180.486H83.6063C82.5342 180.486 81.665 181.354 81.665 182.425C81.665 183.496 82.5342 184.364 83.6063 184.364H105.584C106.656 184.364 107.525 183.496 107.525 182.425C107.525 181.354 106.656 180.486 105.584 180.486Z" fill="#E6E6E6"/>
<path d="M159.508 180.486H137.53C136.458 180.486 135.589 181.354 135.589 182.425C135.589 183.496 136.458 184.364 137.53 184.364H159.508C160.58 184.364 161.449 183.496 161.449 182.425C161.449 181.354 160.58 180.486 159.508 180.486Z" fill="#E6E6E6"/>
<path d="M86.9266 189.562H83.3904C82.3183 189.562 81.4492 190.43 81.4492 191.501C81.4492 192.572 82.3183 193.44 83.3904 193.44H86.9266C87.9987 193.44 88.8679 192.572 88.8679 191.501C88.8679 190.43 87.9987 189.562 86.9266 189.562Z" fill="#E6E6E6"/>
<path d="M127.369 189.562H123.833C122.761 189.562 121.892 190.43 121.892 191.501C121.892 192.572 122.761 193.44 123.833 193.44H127.369C128.442 193.44 129.311 192.572 129.311 191.501C129.311 190.43 128.442 189.562 127.369 189.562Z" fill="#E6E6E6"/>
<path d="M138.828 189.562H135.292C134.22 189.562 133.351 190.43 133.351 191.501C133.351 192.572 134.22 193.44 135.292 193.44H138.828C139.9 193.44 140.769 192.572 140.769 191.501C140.769 190.43 139.9 189.562 138.828 189.562Z" fill="#E6E6E6"/>
<path d="M116.369 189.239H94.3909C93.3188 189.239 92.4497 190.107 92.4497 191.178C92.4497 192.249 93.3188 193.117 94.3909 193.117H116.369C117.441 193.117 118.31 192.249 118.31 191.178C118.31 190.107 117.441 189.239 116.369 189.239Z" fill="#E6E6E6"/>
<path d="M170.293 189.239H148.315C147.243 189.239 146.374 190.107 146.374 191.178C146.374 192.249 147.243 193.117 148.315 193.117H170.293C171.365 193.117 172.234 192.249 172.234 191.178C172.234 190.107 171.365 189.239 170.293 189.239Z" fill="#E6E6E6"/>
<path d="M97.7113 198.315H94.1751C93.103 198.315 92.2339 199.183 92.2339 200.254C92.2339 201.325 93.103 202.193 94.1751 202.193H97.7113C98.7834 202.193 99.6525 201.325 99.6525 200.254C99.6525 199.183 98.7834 198.315 97.7113 198.315Z" fill="#E6E6E6"/>
<path d="M138.154 198.315H134.618C133.546 198.315 132.677 199.183 132.677 200.254C132.677 201.325 133.546 202.193 134.618 202.193H138.154C139.226 202.193 140.095 201.325 140.095 200.254C140.095 199.183 139.226 198.315 138.154 198.315Z" fill="#E6E6E6"/>
<path d="M149.613 198.315H146.077C145.005 198.315 144.136 199.183 144.136 200.254C144.136 201.325 145.005 202.193 146.077 202.193H149.613C150.685 202.193 151.554 201.325 151.554 200.254C151.554 199.183 150.685 198.315 149.613 198.315Z" fill="#E6E6E6"/>
<path d="M127.154 197.991H105.176C104.104 197.991 103.235 198.86 103.235 199.93C103.235 201.001 104.104 201.87 105.176 201.87H127.154C128.226 201.87 129.095 201.001 129.095 199.93C129.095 198.86 128.226 197.991 127.154 197.991Z" fill="#E6E6E6"/>
<path d="M181.078 197.991H159.1C158.028 197.991 157.158 198.86 157.158 199.93C157.158 201.001 158.028 201.87 159.1 201.87H181.078C182.15 201.87 183.019 201.001 183.019 199.93C183.019 198.86 182.15 197.991 181.078 197.991Z" fill="#E6E6E6"/>
<path d="M108.496 207.068H104.96C103.888 207.068 103.019 207.936 103.019 209.007C103.019 210.077 103.888 210.946 104.96 210.946H108.496C109.568 210.946 110.437 210.077 110.437 209.007C110.437 207.936 109.568 207.068 108.496 207.068Z" fill="#E6E6E6"/>
<path d="M148.939 207.068H145.403C144.331 207.068 143.462 207.936 143.462 209.007C143.462 210.077 144.331 210.946 145.403 210.946H148.939C150.011 210.946 150.88 210.077 150.88 209.007C150.88 207.936 150.011 207.068 148.939 207.068Z" fill="#E6E6E6"/>
<path d="M160.398 207.068H156.862C155.79 207.068 154.92 207.936 154.92 209.007C154.92 210.077 155.79 210.946 156.862 210.946H160.398C161.47 210.946 162.339 210.077 162.339 209.007C162.339 207.936 161.47 207.068 160.398 207.068Z" fill="#E6E6E6"/>
<path d="M137.938 206.744H115.961C114.888 206.744 114.019 207.612 114.019 208.683C114.019 209.754 114.888 210.622 115.961 210.622H137.938C139.01 210.622 139.88 209.754 139.88 208.683C139.88 207.612 139.01 206.744 137.938 206.744Z" fill="#E6E6E6"/>
<path d="M116.585 241.873H113.049C111.977 241.873 111.107 242.741 111.107 243.812C111.107 244.883 111.977 245.751 113.049 245.751H116.585C117.657 245.751 118.526 244.883 118.526 243.812C118.526 242.741 117.657 241.873 116.585 241.873Z" fill="#E6E6E6"/>
<path d="M128.044 241.873H124.507C123.435 241.873 122.566 242.741 122.566 243.812C122.566 244.883 123.435 245.751 124.507 245.751H128.044C129.116 245.751 129.985 244.883 129.985 243.812C129.985 242.741 129.116 241.873 128.044 241.873Z" fill="#E6E6E6"/>
<path d="M159.508 242.196H137.53C136.458 242.196 135.589 243.064 135.589 244.135C135.589 245.206 136.458 246.074 137.53 246.074H159.508C160.58 246.074 161.449 245.206 161.449 244.135C161.449 243.064 160.58 242.196 159.508 242.196Z" fill="#E6E6E6"/>
<path d="M76.142 241.873H72.6058C71.5337 241.873 70.6646 242.741 70.6646 243.812C70.6646 244.883 71.5337 245.751 72.6058 245.751H76.142C77.2141 245.751 78.0832 244.883 78.0832 243.812C78.0832 242.741 77.2141 241.873 76.142 241.873Z" fill="#E6E6E6"/>
<path d="M105.584 242.196H83.6063C82.5342 242.196 81.665 243.064 81.665 244.135C81.665 245.206 82.5342 246.074 83.6063 246.074H105.584C106.656 246.074 107.525 245.206 107.525 244.135C107.525 243.064 106.656 242.196 105.584 242.196Z" fill="#E6E6E6"/>
<path d="M86.9266 233.12H83.3904C82.3183 233.12 81.4492 233.988 81.4492 235.059C81.4492 236.13 82.3183 236.998 83.3904 236.998H86.9266C87.9987 236.998 88.8679 236.13 88.8679 235.059C88.8679 233.988 87.9987 233.12 86.9266 233.12Z" fill="#E6E6E6"/>
<path d="M127.369 233.12H123.833C122.761 233.12 121.892 233.988 121.892 235.059C121.892 236.13 122.761 236.998 123.833 236.998H127.369C128.442 236.998 129.311 236.13 129.311 235.059C129.311 233.988 128.442 233.12 127.369 233.12Z" fill="#E6E6E6"/>
<path d="M138.828 233.12H135.292C134.22 233.12 133.351 233.988 133.351 235.059C133.351 236.13 134.22 236.998 135.292 236.998H138.828C139.9 236.998 140.769 236.13 140.769 235.059C140.769 233.988 139.9 233.12 138.828 233.12Z" fill="#E6E6E6"/>
<path d="M116.369 233.443H94.3909C93.3188 233.443 92.4497 234.311 92.4497 235.382C92.4497 236.453 93.3188 237.321 94.3909 237.321H116.369C117.441 237.321 118.31 236.453 118.31 235.382C118.31 234.311 117.441 233.443 116.369 233.443Z" fill="#E6E6E6"/>
<path d="M97.7113 224.367H94.1751C93.103 224.367 92.2339 225.235 92.2339 226.306C92.2339 227.377 93.103 228.245 94.1751 228.245H97.7113C98.7834 228.245 99.6525 227.377 99.6525 226.306C99.6525 225.235 98.7834 224.367 97.7113 224.367Z" fill="#E6E6E6"/>
<path d="M138.154 224.367H134.618C133.546 224.367 132.677 225.235 132.677 226.306C132.677 227.377 133.546 228.245 134.618 228.245H138.154C139.226 228.245 140.095 227.377 140.095 226.306C140.095 225.235 139.226 224.367 138.154 224.367Z" fill="#E6E6E6"/>
<path d="M149.613 224.367H146.077C145.005 224.367 144.136 225.235 144.136 226.306C144.136 227.377 145.005 228.245 146.077 228.245H149.613C150.685 228.245 151.554 227.377 151.554 226.306C151.554 225.235 150.685 224.367 149.613 224.367Z" fill="#E6E6E6"/>
<path d="M127.154 224.69H105.176C104.104 224.69 103.235 225.558 103.235 226.629C103.235 227.7 104.104 228.568 105.176 228.568H127.154C128.226 228.568 129.095 227.7 129.095 226.629C129.095 225.558 128.226 224.69 127.154 224.69Z" fill="#E6E6E6"/>
<path d="M108.496 215.614H104.96C103.888 215.614 103.019 216.482 103.019 217.553C103.019 218.624 103.888 219.492 104.96 219.492H108.496C109.568 219.492 110.437 218.624 110.437 217.553C110.437 216.482 109.568 215.614 108.496 215.614Z" fill="#E6E6E6"/>
<path d="M148.939 215.614H145.403C144.331 215.614 143.462 216.482 143.462 217.553C143.462 218.624 144.331 219.492 145.403 219.492H148.939C150.011 219.492 150.88 218.624 150.88 217.553C150.88 216.482 150.011 215.614 148.939 215.614Z" fill="#E6E6E6"/>
<path d="M160.398 215.614H156.862C155.79 215.614 154.92 216.482 154.92 217.553C154.92 218.624 155.79 219.492 156.862 219.492H160.398C161.47 219.492 162.339 218.624 162.339 217.553C162.339 216.482 161.47 215.614 160.398 215.614Z" fill="#E6E6E6"/>
<path d="M137.938 215.937H115.961C114.888 215.937 114.019 216.805 114.019 217.876C114.019 218.947 114.888 219.815 115.961 219.815H137.938C139.01 219.815 139.88 218.947 139.88 217.876C139.88 216.805 139.01 215.937 137.938 215.937Z" fill="#E6E6E6"/>
<path d="M63.428 368.32C63.8391 368.528 64.2571 368.737 64.6682 368.939C75.3182 374.258 83.8381 377.281 95.4924 380.594C96.4765 369.619 97.4269 350.329 98.3504 338.371C98.5931 335.268 98.8357 332.662 99.0716 330.824C99.1311 329.847 99.3309 328.883 99.6648 327.962L99.6244 330.824L99.5232 338.371L98.9368 381.536C113.434 385.368 128.326 387.512 143.316 387.926C144.098 387.946 144.866 387.96 145.608 387.973C145.871 387.98 146.127 387.987 146.383 387.987C147.226 387.993 148.061 388 148.904 388C164.701 388.012 180.441 386.106 195.777 382.324C195.447 371.464 195.117 352.389 194.8 338.371C194.733 335.631 194.672 333.079 194.604 330.824C194.476 326.003 194.342 322.529 194.213 321.364C194.327 321.57 194.415 321.79 194.476 322.017C195.101 324.92 195.526 327.863 195.75 330.824C195.986 333.079 196.222 335.631 196.458 338.371C197.712 352.935 199.019 372.736 200.368 381.132C208.392 378.944 216.265 376.239 223.939 373.033C227.983 371.349 231.956 369.534 235.856 367.586C235.115 362.738 234.34 357.304 233.544 351.669C232.924 347.299 232.284 342.808 231.63 338.371C230.619 331.517 215.594 283.619 214.644 281.801C213.828 280.246 213.053 278.778 212.318 277.425C210.539 274.139 209.029 271.52 207.91 269.864C203.232 262.776 196.268 257.499 188.174 254.91L187.972 254.856L187.83 254.916L174.046 250.688L172.031 250.069L170.676 249.651L165.904 246.022L163.308 244.049L160.875 242.198L156.116 238.582L126.654 240.393L120.918 254.189L108.07 258.882L107.848 258.781L107.652 258.7L107.45 258.754C99.3573 261.346 92.3939 266.622 87.714 273.708C87.0804 274.657 86.312 275.91 85.4424 277.425C84.701 278.711 83.8921 280.178 83.0159 281.801C81.7689 284.111 80.4073 286.716 78.9649 289.537C78.6481 290.157 78.3245 290.79 78.001 291.429C77.401 292.614 76.7922 293.824 76.1743 295.058C74.7386 297.92 73.2557 300.909 71.7728 303.946C70.4853 306.578 69.1844 311.992 67.9037 318.879C66.8455 324.602 65.7939 331.349 64.7761 338.371C63.4415 347.474 64.8638 358.375 63.6572 366.751C63.583 367.283 63.5021 367.801 63.428 368.32Z" fill="#3F3D56"/>
<path opacity="0.2" d="M204.634 318.85L198.907 296.771L193.849 315.823L204.634 318.85Z" fill="black"/>
<path d="M52.2251 304.464C54.2742 332.662 52.1509 345.077 63.4615 368.326C73.7524 373.358 84.4718 377.463 95.4922 380.594C96.6381 380.917 97.7862 381.231 98.9366 381.536C113.434 385.368 128.326 387.512 143.316 387.926C144.098 387.946 144.866 387.96 145.608 387.973C145.871 387.98 146.127 387.986 146.383 387.986C147.225 387.993 148.061 388 148.904 388C164.701 388.012 180.44 386.106 195.777 382.324C197.314 381.947 198.844 381.55 200.367 381.132C208.391 378.944 216.265 376.239 223.939 373.033C227.983 371.349 231.955 369.534 235.856 367.586C236.739 367.141 237.622 366.697 238.491 366.239C242.96 358.388 245.502 348.841 245.556 337.368C242.462 317.6 59.0599 287.416 52.2251 304.464Z" fill="#2F2E41"/>
<path opacity="0.2" d="M52.2304 309.293C52.1258 307.548 52.0088 305.744 51.8723 303.867C58.7072 286.819 242.109 317.003 245.203 336.77C245.194 338.583 245.117 340.342 244.986 342.059C237.494 322.548 63.2597 293.86 52.2304 309.293Z" fill="black"/>
<path d="M10.6698 318.594C10.9668 319.458 11.5301 320.205 12.2789 320.729C13.0277 321.253 13.9234 321.526 14.8375 321.51L32.6943 321.051C33.615 321.033 34.5053 320.718 35.2319 320.153C35.9586 319.588 36.4826 318.803 36.7256 317.915L39.2526 290.925C40.1491 291.33 41.1251 291.531 42.1091 291.511C43.835 291.467 45.4725 290.74 46.6618 289.49C47.8511 288.24 48.4948 286.569 48.4515 284.845C48.4082 283.121 47.6814 281.485 46.4308 280.296C45.1802 279.107 43.5082 278.463 41.7823 278.505C41.389 278.504 40.9967 278.545 40.612 278.627C40.1937 278.175 39.6853 277.815 39.1194 277.571C38.5536 277.328 37.9429 277.205 37.3267 277.211L9.85887 277.919C9.63101 277.928 9.40432 277.956 9.18132 278.003C8.57895 278.116 8.00763 278.355 7.5058 278.707C7.00397 279.058 6.58329 279.512 6.27206 280.04C5.96084 280.567 5.7663 281.155 5.70153 281.763C5.63676 282.372 5.70326 282.987 5.89656 283.568L10.6698 318.594ZM39.7708 289.092L41.5689 282.66C41.7734 281.917 41.7782 281.134 41.5826 280.388C41.6699 280.388 41.7468 280.347 41.8341 280.347C43.067 280.321 44.2597 280.785 45.1507 281.637C46.0417 282.488 46.5582 283.658 46.5871 284.889C46.616 286.121 46.1548 287.313 45.3047 288.206C44.4546 289.098 43.2849 289.617 42.0522 289.65C41.2551 289.674 40.4664 289.482 39.7708 289.092Z" fill="#2F2E41"/>
<path d="M9.18115 278.003C9.76635 281.346 16.3457 283.695 24.2568 283.287C31.5316 282.952 37.4799 280.401 38.5697 277.376C38.1664 277.257 37.747 277.201 37.3265 277.211L9.8587 277.919C9.63084 277.928 9.40415 277.956 9.18115 278.003Z" fill="#3F3D56"/>
<path d="M25.7068 303.762C25.743 303.753 25.7774 303.738 25.8086 303.718L29.6865 301.182C29.7333 301.152 29.7718 301.11 29.7985 301.061C29.8252 301.012 29.8392 300.957 29.8392 300.901C29.8392 300.845 29.8253 300.79 29.7986 300.741C29.772 300.691 29.7335 300.65 29.6867 300.619L25.656 297.982C25.619 297.958 25.5776 297.941 25.534 297.932C25.4905 297.924 25.4457 297.924 25.4022 297.933C25.3588 297.942 25.3175 297.959 25.2808 297.984C25.2442 298.009 25.2127 298.041 25.1884 298.078C25.1641 298.115 25.1474 298.157 25.1391 298.2C25.1309 298.244 25.1314 298.289 25.1405 298.332C25.1496 298.375 25.1672 298.416 25.1923 298.453C25.2174 298.489 25.2495 298.521 25.2867 298.545L28.8867 300.9L25.4396 303.154C25.3729 303.198 25.3238 303.264 25.3011 303.34C25.2783 303.416 25.2835 303.498 25.3155 303.571C25.3476 303.644 25.4045 303.703 25.4761 303.738C25.5478 303.773 25.6295 303.782 25.7068 303.762H25.7068Z" fill="#6C63FF"/>
<path d="M19.5818 304.044C19.6469 304.028 19.7056 303.993 19.7503 303.943C19.7951 303.893 19.8239 303.83 19.833 303.764C19.8421 303.697 19.8312 303.63 19.8015 303.57C19.7719 303.509 19.725 303.459 19.6668 303.426L16.0923 301.379L19.5472 298.816C19.5827 298.789 19.6126 298.756 19.6353 298.718C19.658 298.68 19.673 298.638 19.6795 298.595C19.6859 298.551 19.6837 298.506 19.6729 298.464C19.6621 298.421 19.643 298.38 19.6166 298.345C19.5902 298.31 19.5571 298.28 19.5192 298.257C19.4812 298.234 19.4392 298.219 19.3954 298.213C19.3517 298.206 19.3071 298.209 19.2642 298.219C19.2213 298.23 19.1809 298.249 19.1454 298.276L15.2773 301.146C15.2324 301.179 15.1964 301.223 15.1728 301.273C15.1491 301.324 15.1384 301.38 15.1417 301.436C15.145 301.491 15.1621 301.545 15.1916 301.593C15.2211 301.64 15.2619 301.68 15.3105 301.708L19.3314 304.01C19.4072 304.054 19.497 304.066 19.5818 304.044Z" fill="#6C63FF"/>
<path d="M25.3211 305.984C25.3537 305.976 25.3848 305.963 25.4134 305.945C25.4513 305.922 25.4842 305.892 25.5104 305.856C25.5366 305.821 25.5554 305.78 25.5659 305.737C25.5764 305.694 25.5783 305.65 25.5715 305.606C25.5647 305.562 25.5494 305.52 25.5263 305.483L20.0291 296.455C19.9824 296.379 19.9075 296.325 19.8208 296.304C19.7341 296.283 19.6427 296.297 19.5665 296.344C19.4904 296.39 19.4357 296.465 19.4145 296.551C19.3933 296.638 19.4072 296.729 19.4532 296.805L24.9504 305.833C24.988 305.895 25.0442 305.942 25.1109 305.97C25.1776 305.997 25.2512 306.002 25.3211 305.984Z" fill="#6C63FF"/>
<path d="M452.292 268.097H392.302V320.614H452.292V268.097Z" fill="#3F3D56"/>
<path d="M461.184 194.741C460.071 201.325 461.048 208.091 463.977 214.093C465.061 216.301 466.404 218.96 465.084 221.035C464.713 221.554 464.232 221.984 463.674 222.292C463.116 222.601 462.496 222.782 461.859 222.82C460.585 222.888 459.31 222.723 458.095 222.334" fill="#CCCCCC"/>
<path d="M408.479 174.508C409.595 174.508 410.501 173.755 410.501 172.825C410.501 171.896 409.595 171.142 408.479 171.142C407.362 171.142 406.457 171.896 406.457 172.825C406.457 173.755 407.362 174.508 408.479 174.508Z" fill="#3F3D56"/>
<path d="M415.893 175.182C417.01 175.182 417.915 174.428 417.915 173.498C417.915 172.569 417.01 171.815 415.893 171.815C414.776 171.815 413.871 172.569 413.871 173.498C413.871 174.428 414.776 175.182 415.893 175.182Z" fill="#3F3D56"/>
<path d="M423.308 178.548C424.425 178.548 425.33 177.795 425.33 176.865C425.33 175.935 424.425 175.182 423.308 175.182C422.191 175.182 421.286 175.935 421.286 176.865C421.286 177.795 422.191 178.548 423.308 178.548Z" fill="#3F3D56"/>
<path d="M432.07 176.528C433.187 176.528 434.093 175.775 434.093 174.845C434.093 173.915 433.187 173.162 432.07 173.162C430.954 173.162 430.048 173.915 430.048 174.845C430.048 175.775 430.954 176.528 432.07 176.528Z" fill="#3F3D56"/>
<path d="M248.005 208.431C257.826 205.708 268.765 208.627 276.355 215.312C280.449 218.944 283.455 223.641 285.035 228.878C286.973 235.112 287.293 241.688 287.496 248.168C287.721 255.333 287.916 262.499 288.125 269.664C288.324 276.496 288.347 283.36 288.804 290.181C289.187 295.904 290.104 301.846 293.17 306.81C296.013 311.412 300.505 314.519 305.581 316.232C310.725 317.968 316.271 318.372 321.668 318.337C327.949 318.317 334.22 317.821 340.426 316.854C352.213 314.967 363.855 310.156 371.054 300.231C374.369 295.724 376.232 290.316 376.395 284.726C376.546 278.212 374.463 271.903 372.181 265.886C369.96 260.031 367.558 254.262 366.152 248.141C364.846 242.412 364.224 236.549 364.299 230.674C364.419 218.92 367.239 207.351 372.542 196.858C375.226 191.468 378.63 186.468 382.662 181.995C386.82 177.475 391.968 173.745 398.091 172.522C401.078 171.904 404.173 172.028 407.101 172.884C408.35 173.257 408.884 171.309 407.639 170.936C401.573 169.122 394.984 170.501 389.607 173.65C384.32 176.746 380.141 181.39 376.595 186.314C369.782 195.968 365.246 207.039 363.328 218.695C361.41 230.35 362.16 242.289 365.521 253.614C369.12 265.389 376.947 277.646 373.584 290.39C370.641 301.544 360.446 309.124 349.914 312.548C343.524 314.626 336.825 315.505 330.143 315.959C324.496 316.343 318.772 316.588 313.142 315.863C307.97 315.197 302.651 313.618 298.641 310.15C294.245 306.349 292.237 300.887 291.362 295.282C290.373 288.94 290.518 282.4 290.332 276L289.695 254.157C289.335 241.819 289.645 228.146 281.609 217.924C278.396 213.94 274.317 210.741 269.68 208.57C265.043 206.399 259.972 205.313 254.852 205.394C252.355 205.451 249.875 205.817 247.468 206.483C247.217 206.562 247.007 206.734 246.882 206.964C246.756 207.194 246.725 207.464 246.795 207.717C246.864 207.969 247.03 208.185 247.255 208.318C247.481 208.452 247.75 208.492 248.005 208.431H248.005Z" fill="#3F3D56"/>
<path d="M104.455 195.653C105.886 205.826 111.302 215.016 119.513 221.203C127.724 227.39 138.058 230.068 148.244 228.649C158.431 227.229 167.636 221.828 173.839 213.633C180.041 205.437 182.732 195.117 181.321 184.941L181.244 184.391C179.603 174.352 174.076 165.359 165.857 159.354C157.638 153.348 147.385 150.81 137.309 152.288C127.234 153.766 118.143 159.14 111.999 167.253C105.855 175.365 103.15 185.564 104.467 195.651L104.455 195.653Z" fill="#FFB6B6"/>
<path d="M138.664 227.704C136.658 223.668 134.596 219.333 135.141 214.859C135.686 210.385 140.062 206.096 144.378 207.411C146.959 208.197 148.916 210.733 151.611 210.854C155.32 211.021 157.432 206.775 158.574 203.247L163.226 188.877C172.2 195.919 160.835 188.536 171.951 185.959C176.312 184.947 180.715 182.989 183.263 179.312C185.811 175.635 185.776 169.944 182.255 167.182C180.529 165.827 178.236 165.318 176.585 163.872C175.562 162.975 174.854 161.773 174.568 160.443C174.281 159.113 174.431 157.726 174.995 156.488C175.559 155.25 176.507 154.226 177.698 153.568C178.89 152.909 180.262 152.652 181.612 152.833L169.771 151.395L173.276 145.013C170.742 147.022 167.207 147.303 164.02 146.741C160.834 146.179 157.831 144.879 154.713 144.016C139.744 139.873 122.388 147.222 114.959 160.847C112.043 159.885 108.904 159.831 105.957 160.692C103.009 161.553 100.394 163.288 98.4557 165.667C95.3008 169.694 94.4572 175.058 94.3515 180.171C94.1549 190.252 96.3887 200.232 100.864 209.269C102.259 212.078 103.908 214.833 106.279 216.888C108.65 218.942 135.446 230.323 138.539 229.787" fill="#2F2E41"/>
<path d="M418.589 201.104C418.595 202.851 418.37 204.592 417.922 206.281V206.288C417.915 206.322 417.902 206.355 417.895 206.389C416.534 211.392 413.285 214.906 409.49 214.906C405.715 214.906 402.48 211.418 401.098 206.456C401.004 206.113 400.923 205.77 400.848 205.413C400.754 205.015 400.68 204.605 400.619 204.181C400.565 203.844 400.525 203.501 400.491 203.15C400.444 202.666 400.41 202.181 400.404 201.676V201.669C400.39 201.481 400.39 201.292 400.39 201.104V200.935L400.397 200.929C400.398 200.075 400.454 199.223 400.565 198.377C400.613 198.02 400.667 197.677 400.734 197.333C400.815 196.916 400.902 196.505 401.01 196.101C401.098 195.744 401.199 195.401 401.307 195.057C401.455 194.6 401.617 194.155 401.799 193.731C401.914 193.455 402.035 193.186 402.156 192.923C403.814 189.516 406.484 187.301 409.49 187.301C413.649 187.301 417.154 191.536 418.239 197.313C418.252 197.4 418.273 197.488 418.279 197.575V197.582C418.487 198.745 418.591 199.923 418.589 201.104Z" fill="#E6E6E6"/>
<path d="M402.244 193.219C402.24 193.343 402.194 193.461 402.113 193.554C402.032 193.648 401.921 193.71 401.799 193.731C401.914 193.455 402.035 193.186 402.156 192.923C402.212 193.012 402.243 193.114 402.244 193.219Z" fill="#6C63FF"/>
<path d="M410.213 192.606H404.281C403.992 192.606 403.758 192.84 403.758 193.129C403.758 193.418 403.992 193.653 404.281 193.653H410.213C410.502 193.653 410.737 193.418 410.737 193.129C410.737 192.84 410.502 192.606 410.213 192.606Z" fill="#6C63FF"/>
<path d="M402.062 195.576C402.062 195.715 402.006 195.849 401.908 195.947C401.809 196.045 401.675 196.101 401.536 196.101H401.01C401.098 195.744 401.199 195.401 401.307 195.057H401.536C401.674 195.057 401.807 195.112 401.906 195.209C402.004 195.306 402.06 195.438 402.062 195.576Z" fill="#6C63FF"/>
<path d="M404.632 195.056H403.677C403.388 195.056 403.154 195.29 403.154 195.579C403.154 195.868 403.388 196.102 403.677 196.102H404.632C404.921 196.102 405.156 195.868 405.156 195.579C405.156 195.29 404.921 195.056 404.632 195.056Z" fill="#6C63FF"/>
<path d="M413.124 194.968H407.192C406.903 194.968 406.668 195.203 406.668 195.492C406.668 195.781 406.903 196.015 407.192 196.015H413.124C413.413 196.015 413.648 195.781 413.648 195.492C413.648 195.203 413.413 194.968 413.124 194.968Z" fill="#6C63FF"/>
<path d="M404.45 197.418H403.496C403.206 197.418 402.972 197.652 402.972 197.941C402.972 198.23 403.206 198.465 403.496 198.465H404.45C404.739 198.465 404.974 198.23 404.974 197.941C404.974 197.652 404.739 197.418 404.45 197.418Z" fill="#6C63FF"/>
<path d="M407.542 197.418H406.588C406.299 197.418 406.064 197.652 406.064 197.941C406.064 198.23 406.299 198.465 406.588 198.465H407.542C407.832 198.465 408.066 198.23 408.066 197.941C408.066 197.652 407.832 197.418 407.542 197.418Z" fill="#6C63FF"/>
<path d="M402.008 197.852C402.008 197.991 401.952 198.124 401.854 198.223C401.755 198.321 401.622 198.377 401.482 198.377H400.565C400.613 198.02 400.667 197.677 400.734 197.333H401.482C401.551 197.332 401.619 197.345 401.683 197.371C401.746 197.397 401.804 197.435 401.853 197.483C401.902 197.531 401.941 197.589 401.967 197.652C401.994 197.715 402.008 197.783 402.008 197.852Z" fill="#6C63FF"/>
<path d="M416.034 197.331H410.103C409.813 197.331 409.579 197.565 409.579 197.854C409.579 198.143 409.813 198.377 410.103 198.377H416.034C416.324 198.377 416.558 198.143 416.558 197.854C416.558 197.565 416.324 197.331 416.034 197.331Z" fill="#6C63FF"/>
<path d="M402.244 201.299C402.244 201.367 402.23 201.435 402.203 201.499C402.177 201.562 402.138 201.619 402.089 201.667C402.04 201.716 401.982 201.754 401.918 201.779C401.855 201.805 401.787 201.818 401.718 201.817H400.768C400.633 201.818 400.503 201.767 400.404 201.676V201.669C400.39 201.481 400.39 201.292 400.39 201.104V200.935L400.397 200.929C400.445 200.879 400.503 200.84 400.567 200.814C400.63 200.787 400.699 200.774 400.768 200.774H401.718C401.857 200.774 401.991 200.829 402.09 200.928C402.188 201.026 402.244 201.16 402.244 201.299Z" fill="#CCCCCC"/>
<path d="M410.213 200.686H404.281C403.992 200.686 403.758 200.92 403.758 201.209C403.758 201.498 403.992 201.732 404.281 201.732H410.213C410.502 201.732 410.737 201.498 410.737 201.209C410.737 200.92 410.502 200.686 410.213 200.686Z" fill="#CCCCCC"/>
<path d="M402.062 203.655C402.062 203.795 402.006 203.928 401.908 204.027C401.809 204.125 401.675 204.18 401.536 204.181H400.619C400.565 203.844 400.525 203.501 400.491 203.15C400.521 203.139 400.554 203.135 400.586 203.137H401.536C401.674 203.137 401.807 203.191 401.906 203.288C402.004 203.385 402.06 203.517 402.062 203.655Z" fill="#CCCCCC"/>
<path d="M404.632 203.135H403.677C403.388 203.135 403.154 203.369 403.154 203.659C403.154 203.948 403.388 204.182 403.677 204.182H404.632C404.921 204.182 405.156 203.948 405.156 203.659C405.156 203.369 404.921 203.135 404.632 203.135Z" fill="#CCCCCC"/>
<path d="M413.124 203.048H407.192C406.903 203.048 406.668 203.282 406.668 203.571C406.668 203.86 406.903 204.095 407.192 204.095H413.124C413.413 204.095 413.648 203.86 413.648 203.571C413.648 203.282 413.413 203.048 413.124 203.048Z" fill="#CCCCCC"/>
<path d="M404.45 205.497H403.496C403.206 205.497 402.972 205.732 402.972 206.021C402.972 206.31 403.206 206.544 403.496 206.544H404.45C404.739 206.544 404.974 206.31 404.974 206.021C404.974 205.732 404.739 205.497 404.45 205.497Z" fill="#CCCCCC"/>
<path d="M407.542 205.497H406.588C406.299 205.497 406.064 205.732 406.064 206.021C406.064 206.31 406.299 206.544 406.588 206.544H407.542C407.832 206.544 408.066 206.31 408.066 206.021C408.066 205.732 407.832 205.497 407.542 205.497Z" fill="#CCCCCC"/>
<path d="M402.008 205.931C402.008 206.07 401.952 206.204 401.854 206.302C401.755 206.401 401.622 206.456 401.482 206.456H401.098C401.004 206.113 400.923 205.77 400.849 205.413H401.482C401.551 205.412 401.619 205.425 401.683 205.451C401.746 205.476 401.804 205.514 401.853 205.563C401.902 205.611 401.941 205.668 401.967 205.731C401.994 205.795 402.008 205.863 402.008 205.931Z" fill="#CCCCCC"/>
<path d="M416.034 205.41H410.103C409.813 205.41 409.579 205.645 409.579 205.934C409.579 206.223 409.813 206.457 410.103 206.457H416.034C416.324 206.457 416.558 206.223 416.558 205.934C416.558 205.645 416.324 205.41 416.034 205.41Z" fill="#CCCCCC"/>
</g>
<defs>
<clipPath id="clip0_11_318">
<rect width="498" height="388" fill="white"/>
</clipPath>
</defs>
</svg>
