<svg width="356" height="267" viewBox="0 0 356 267" fill="none" xmlns="http://www.w3.org/2000/svg">
<g clip-path="url(#clip0_6_804)">
<path d="M316.3 134C301 150.4 275.8 156.9 254.7 149.4C237.6 143.3 224.1 128.6 217.9 111.5C212.8 97.4 212.3 81.9 215.6 67.2C216.3 64.1 217.1 61 218.1 58C227 59.3 236 60.7 245 62.1C257.7 64.1 270.6 66 283.4 67.7C298.9 69.7 314.3 71.1 329.5 71.4C331.1 76.1 332 81 332.4 85.9C333.9 103.2 328.3 121.2 316.3 134Z" fill="white"/>
<path d="M326.2 101.2C325 110 321.5 118.4 316 125.5C304 140.8 282.4 148.8 263.1 144.5C247.4 141 234.2 129.9 227.1 116.1C221.3 104.7 219.4 91.6 220.9 78.9C221.2 76.2 221.7 73.5 222.3 70.9C222.5 70.9 222.7 70.9 222.8 70.9C221.4 83.4 223.3 96.2 229.1 107.4C236.2 121.2 249.4 132.3 265.1 135.8C284.4 140.1 306 132.1 318 116.8C321.7 112.1 324.4 106.8 326.2 101.2Z" fill="#E6E6E6"/>
<path d="M332.5 85.8C292.8 87.3 252.8 80.9 215.6 67.1C216.3 64 217.1 60.9 218.1 57.9C227 59.2 236 60.6 245 62C257.7 64 270.6 65.9 283.4 67.6C298.9 69.6 314.3 71 329.5 71.3C331.1 76 332.1 80.9 332.5 85.8Z" fill="#E6E6E6"/>
<path d="M355.3 73.2C336.8 54.9 311.2 44 285.1 43.5C271.4 43.2 257.7 45.7 244 46C230.3 46.4 215.8 44.4 204.8 36.2C193.8 28 187.3 12.5 193.1 0C211.6 10.7 235.5 11.4 256.8 12.7C278.1 14 300 14.9 319.5 23.6C338.9 32.3 356.2 51.8 355.3 73.2Z" fill="#212121"/>
<path d="M259.4 100C238.7 97.5 235.5 74.9 245.1 62.1C257.8 64.1 270.7 66 283.5 67.7C288.3 82.2 279.4 102.4 259.4 100Z" fill="#212121"/>
<path d="M137.3 89.5C137.2 98 135.8 106.4 132.9 114.3C126.7 131.4 113.2 146.1 96.1 152.2C75 159.8 49.8 153.2 34.5 136.8C22.7 124.3 17 106.6 18.3 89.4C18.7 84.3 19.6 79.2 21.3 74.3C57.9 73.5 96.5 66.2 132.7 60.9C135.8 70 137.4 79.8 137.3 89.5Z" fill="white"/>
<path d="M128.6 106.5C128 110.2 127 113.8 125.5 117.3C120 130.8 108.1 142.4 93 147.3C74.3 153.3 52 148.1 38.5 135.2C28.1 125.3 23 111.2 24.2 97.6C24.5 93.7 25.3 89.8 26.7 86.1C26.5 87.2 26.4 88.3 26.3 89.4C25 103 30 117 40.5 126.9C54 139.9 76.3 145.1 95 139.1C110.1 134.2 122 122.7 127.5 109.1C127.9 108.2 128.3 107.4 128.6 106.5Z" fill="#E6E6E6"/>
<path d="M137.3 89.5C125.5 90.4 113.5 89.2 101.7 87.4C86 85.2 70.4 82 54.6 81.9C42.1 81.8 29.4 83.9 18.3 89.4C18.7 84.3 19.6 79.2 21.3 74.3C57.9 73.5 96.5 66.2 132.7 60.9C135.8 70 137.4 79.8 137.3 89.5Z" fill="#E6E6E6"/>
<path d="M87.5 104.4C117.2 100.8 110.9 55.8 82.3 57.7C52.4 59.7 57.2 108 87.5 104.4Z" fill="#212121"/>
<path d="M254 264.5C254 264.5 196.4 247.5 184.8 246.6C157.1 244.5 126 256.7 98.6 264.5C98.8 264.4 112.8 232.4 134.9 210.8C140.1 205.7 145.8 201.2 151.8 197.8C173.4 185.7 198.2 186.6 218.4 205.3C219.3 206.1 220.1 206.9 221 207.8C239.5 227 254 264.5 254 264.5Z" fill="#212121"/>
<path d="M221 207.8C220.9 207.8 220.8 207.8 220.6 207.8C192 208.2 163.4 209.2 134.9 210.8C136.5 209.2 138.2 207.7 139.9 206.3C143.7 203 147.7 200.2 151.9 197.8C173.5 185.7 198.3 186.6 218.5 205.3C219.3 206 220.2 206.9 221 207.8Z" fill="white"/>
<path d="M71.1 96.9H63.5C59.9 96.9 56.9 93.9 56.9 90.3C56.9 86.7 59.9 83.7 63.5 83.7H71.1C74.7 83.7 77.7 86.7 77.7 90.3C77.7 93.9 74.7 96.9 71.1 96.9Z" fill="white"/>
<path d="M249.8 90.3H242.2C238.6 90.3 235.6 87.3 235.6 83.7C235.6 80.1 238.6 77.1 242.2 77.1H249.8C253.4 77.1 256.4 80.1 256.4 83.7C256.4 87.3 253.4 90.3 249.8 90.3Z" fill="white"/>
<path d="M273 154.8C266.5 154.8 260 153.7 253.9 151.6C236.7 145.4 222.4 130.7 215.7 112.3C209.6 95.5 209.7 75.9 215.9 57.2C216.3 56.1 217.3 55.5 218.5 55.6C225.6 56.6 232.9 57.8 240 58.9L245.5 59.8C257.1 61.6 270.5 63.7 283.8 65.4C301.5 67.6 316.1 68.8 329.6 69.1C330.6 69.1 331.5 69.8 331.8 70.7C339.2 92.9 333.7 119 318.1 135.7C306.5 147.9 289.6 154.8 273 154.8ZM219.8 60.5C214.5 77.6 214.6 95.4 220.1 110.6C226.3 127.8 239.6 141.4 255.5 147.1C275.5 154.3 299.8 148.2 314.6 132.3C328.7 117.2 333.9 93.8 327.8 73.5C314.5 73.1 300.3 72 283.2 69.8C269.8 68.1 256.3 66 244.7 64.2L239.2 63.3C232.8 62.5 226.2 61.5 219.8 60.5Z" fill="#212121"/>
<path d="M77.8 157.7C61.2 157.7 44.3 150.8 32.8 138.5C17.2 121.8 11.7 95.7 19.1 73.5C19.4 72.6 20.3 71.9 21.3 71.9C50.2 71.3 80.4 66.5 109.7 62C117.2 60.8 124.9 59.6 132.4 58.5C133.5 58.3 134.6 59 135 60.1C141.3 78.8 141.3 98.3 135.2 115.2C128.5 133.6 114.2 148.3 97 154.5C90.8 156.7 84.3 157.7 77.8 157.7ZM23 76.5C16.9 96.8 22.1 120.2 36.2 135.3C51 151.2 75.4 157.2 95.3 150.1C111.2 144.4 124.4 130.7 130.7 113.6C136.3 98.3 136.4 80.6 131 63.5C124.1 64.5 117.1 65.6 110.3 66.7C81.5 71.1 51.7 75.8 23 76.5Z" fill="#212121"/>
<path d="M0 90.3C21 75 48.1 68.1 73.9 71.5C87.5 73.3 100.6 77.8 114.2 80.2C127.7 82.6 142.3 82.8 154.5 76.5C166.7 70.1 175.4 55.7 171.6 42.5C151.7 50.3 128 47.3 106.7 45.4C85.4 43.5 63.6 41 43.1 46.7C22.4 52.4 2.4 69.1 0 90.3Z" fill="#212121"/>
<path d="M221 207.8C220.9 207.8 220.8 207.8 220.6 207.8C208.2 201.5 194.3 198 180.4 197.7C166.5 197.4 152.5 200.4 139.9 206.3C143.7 203 147.7 200.2 151.9 197.8C173.5 185.7 198.3 186.6 218.5 205.3C219.3 206 220.2 206.9 221 207.8Z" fill="#E6E6E6"/>
<path d="M98.6 266.8C97.6 266.8 96.6001 266.1 96.4001 265.1C96.2001 264.4 96.3 263.7 96.7 263.2C96.8 263 97 262.7 97.2 262.2C106.3 243.5 125.2 209.9 150.7 195.8C174.5 182.6 200.4 185.5 220 203.6C239.9 222 255.5 262 256.2 263.7C256.5 264.5 256.3 265.5 255.7 266.1C255.1 266.8 254.2 267 253.3 266.8C252.7 266.6 195.8 249.9 184.5 249C162.7 247.3 138.7 254.7 115.6 261.8C109.9 263.6 104.5 265.2 99.2 266.7C99.1 266.8 98.9 266.8 98.6 266.8ZM178.2 244.1C180.5 244.1 182.7 244.2 185 244.4C194.9 245.2 236 256.9 250.1 261C245.4 250 232.2 221.2 216.9 207.1C198.6 190.2 175.3 187.6 153 200C130.1 212.7 112.5 242.3 103.1 261C106.8 259.9 110.5 258.8 114.3 257.6C135.6 250.8 157.5 244.1 178.2 244.1Z" fill="#212121"/>
</g>
<defs>
<clipPath id="clip0_6_804">
<rect width="355.4" height="266.8" fill="white"/>
</clipPath>
</defs>
</svg>
