<svg width="94" height="106" viewBox="0 0 94 106" fill="none" xmlns="http://www.w3.org/2000/svg">
<path d="M9.13255 95.0038L0.706299 0.5H93.2938L84.8563 94.9888L46.9438 105.5L9.13255 95.0038Z" fill="#E44F26"/>
<path d="M47 97.4675L77.6375 88.9738L84.845 8.22876H47V97.4675Z" fill="#F1662A"/>
<path d="M47 43.2762H31.6625L30.605 31.4074H47V19.8162H17.9375L18.215 22.9287L21.0613 54.8674H47V43.2762ZM47 73.3774L46.9475 73.3924L34.04 69.9087L33.215 60.6649H21.5787L23.2025 78.8599L46.9475 85.4524L47 85.4374V73.3774Z" fill="#EBEBEB"/>
<path d="M46.9587 43.2762V54.8674H61.2312L59.8887 69.9012L46.9587 73.3887V85.4487L70.7225 78.8599L70.895 76.9024L73.6175 46.3887L73.9025 43.2762H46.9587ZM46.9587 19.8162V31.4074H74.9562L75.1887 28.8049L75.7175 22.9287L75.995 19.8162H46.9587Z" fill="white"/>
</svg>
