<?xml version="1.0" encoding="utf-8"?>
<!-- Uploaded to: SVG Repo, www.svgrepo.com, Generator: SVG Repo Mixer Tools -->
<svg fill="#13fba7" height="800px" width="800px" version="1.2" baseProfile="tiny" id="Layer_1" xmlns="http://www.w3.org/2000/svg" xmlns:xlink="http://www.w3.org/1999/xlink"
	  viewBox="-351 153 256 256" xml:space="preserve">
<path d="M-111.6,381l0.2-68.3h-66.1v-63.4h-17.8v-31.1l-26-25.3v-9h14.5v-13.1h-14.5v-2.6h-2.6v2.6V184v9l-26,25.3v31.1h-17.8v63.3
	h-66l0.2,68.3h-6.9v20.3h117.9h117.9V381H-111.6z M-312.3,373.6h-9.2v-45.3h9.2V373.6z M-295.8,373.6h-9.2v-45.3h9.2V373.6z
	 M-279.2,373.6h-9.2v-45.3h9.2V373.6z M-241.9,282.1v107.3h-12.9V282.1v-4.9l0,0c0.1-3.5,2.9-6.2,6.4-6.2s6.3,2.8,6.4,6.2l0,0v4.9
	H-241.9z M-216.1,389.4H-229V282.1c0-4.7,0-4.7,0-4.7l0,0v-0.2l0,0c0.1-3.5,2.9-6.2,6.4-6.2s6.3,2.8,6.4,6.2l0,0v0.2l0,0
	c0,0,0,0,0,4.7v107.3H-216.1z M-222.5,242.8c-5,0-9.1-4.1-9.1-9.1s4.1-9.1,9.1-9.1s9.1,4.1,9.1,9.1
	C-213.5,238.8-217.5,242.8-222.5,242.8z M-190.3,282.1v107.3h-12.9V282.1v-4.9l0,0c0.1-3.5,2.9-6.2,6.4-6.2s6.3,2.8,6.4,6.2l0,0v4.9
	H-190.3z M-156.7,373.6h-9.2v-45.3h9.2V373.6z M-140.1,373.6h-9.2v-45.3h9.2V373.6z M-123.5,373.6h-9.2v-45.3h9.2V373.6z"/>
</svg>