<svg width="99" height="98" viewBox="0 0 99 98" fill="none" xmlns="http://www.w3.org/2000/svg">
<path d="M95.5351 10.605L75.3541 0.888988C74.2144 0.339481 72.932 0.158144 71.6847 0.370113C70.4373 0.582082 69.2868 1.17686 68.3926 2.07199L2.3301 62.3C1.52857 63.0273 1.04878 64.0432 0.996266 65.1243C0.943756 66.2053 1.32283 67.2629 2.0501 68.0645C2.1376 68.159 2.2251 68.25 2.3196 68.334L7.7131 73.234C8.41787 73.8754 9.32505 74.2497 10.2771 74.2919C11.2291 74.3341 12.1658 74.0416 12.9246 73.465L92.4971 13.125C93.0981 12.6689 93.8145 12.3897 94.5657 12.3186C95.3168 12.2476 96.0729 12.3877 96.7487 12.7231C97.4246 13.0585 97.9934 13.5758 98.3911 14.217C98.7889 14.8581 98.9998 15.5975 99.0001 16.352V16.1175C99 14.9656 98.6748 13.8372 98.0618 12.862C97.4488 11.8868 96.573 11.1045 95.5351 10.605Z" fill="#0065A9"/>
<path d="M95.5351 87.395L75.3541 97.1145C74.2141 97.6625 72.9321 97.843 71.6851 97.6311C70.4381 97.4191 69.2876 96.8253 68.3926 95.9315L2.3301 35.7C1.52857 34.9727 1.04878 33.9568 0.996266 32.8758C0.943756 31.7947 1.32283 30.7371 2.0501 29.9355C2.1376 29.841 2.2251 29.75 2.3196 29.666L7.7131 24.766C8.41859 24.1219 9.32784 23.7459 10.2822 23.7037C11.2366 23.6615 12.1755 23.9557 12.9351 24.535L92.4971 84.875C93.0981 85.3311 93.8145 85.6104 94.5657 85.6814C95.3168 85.7524 96.0729 85.6123 96.7487 85.2769C97.4246 84.9415 97.9934 84.4242 98.3911 83.783C98.7889 83.1419 98.9998 82.4025 99.0001 81.648V81.9C98.9963 83.0488 98.6694 84.1733 98.0566 85.1451C97.4439 86.1168 96.5701 86.8965 95.5351 87.395Z" fill="#007ACC"/>
<path d="M75.3539 97.1144C74.2139 97.6624 72.9319 97.8428 71.6849 97.6309C70.4379 97.419 69.2874 96.8252 68.3924 95.9314C68.895 96.4275 69.5329 96.7642 70.226 96.8993C70.9192 97.0344 71.6368 96.9619 72.2889 96.691C72.941 96.4201 73.4987 95.9627 73.892 95.3762C74.2853 94.7896 74.4968 94.1001 74.4999 93.3939V4.60591C74.5005 3.89642 74.2905 3.20272 73.8965 2.61268C73.5025 2.02264 72.9423 1.56282 72.2867 1.29146C71.6312 1.02009 70.9098 0.949404 70.2141 1.08834C69.5183 1.22728 68.8795 1.56959 68.3784 2.07191C69.2728 1.17711 70.423 0.582294 71.6702 0.369736C72.9173 0.157178 74.1997 0.337377 75.3399 0.885413L95.5174 10.5874C96.5586 11.0844 97.438 11.8657 98.0542 12.8411C98.6704 13.8165 98.9983 14.9462 98.9999 16.0999V81.8999C99.0002 83.0527 98.6748 84.1822 98.0611 85.1581C97.4474 86.134 96.5705 86.9167 95.5314 87.4159L75.3539 97.1144Z" fill="#1F9CF0"/>
</svg>
